<?xml version="1.0" encoding="utf-8"?>
<!-- Generator: Adobe Illustrator 25.0.0, SVG Export Plug-In . SVG Version: 6.00 Build 0)  -->
<svg version="1.1" id="Warstwa_1" xmlns="http://www.w3.org/2000/svg" xmlns:xlink="http://www.w3.org/1999/xlink" x="0px" y="0px"
	 viewBox="0 0 281.3 231.4" style="enable-background:new 0 0 281.3 231.4;" xml:space="preserve">
<style type="text/css">
	.st0{fill:#F7A828;}
	.st1{fill:#CECECE;}
	.st2{fill:#3620A5;}
	.st3{fill:#D972FF;}
	.st4{fill:#FFFFFF;}
	.st5{fill:#7E70E7;}
	.st6{fill:none;stroke:#3620A5;stroke-width:0.583;stroke-miterlimit:10;}
	.st7{fill:none;stroke:#3620A5;stroke-width:0.2915;stroke-miterlimit:10;}
	.st8{fill:none;stroke:#FFFFFF;stroke-width:0.583;stroke-miterlimit:10;}
	.st9{fill:none;stroke:#3720B1;stroke-width:0.583;stroke-miterlimit:10;}
	.st10{fill:#341FA0;}
	.st11{fill:#F3CB91;}
</style>
<g>
	<g>
		<path class="st0" d="M149.4,126.2c0,0,3.3-2.8,4.1-4.1c0.8-1.3,1.1-4,0.6-5.5s-1.1-2.3-1.1-2.3s1.9,0,2.4-0.5c0.5-0.5-0.3-0.9-1-1
			c-0.7,0-1.7,0-1.7,0s1.2-1.2,1.4-1.7c0.2-0.4-0.1-1.2-0.6-1c-0.5,0.2-2.5,1.5-2.5,1.5s-1.4-3-4.6-3.4c-3.2-0.4-4.1,0.5-4.1,0.5
			c-0.7-0.9-1.7-2.4-4-2.5s-4.5,1.1-5.9,3.7c-1.5,2.6-1.1,6.5,0.6,8.2c1.7,1.7,3.8,2.9,3.8,2.9l6.7,4.7c0,0,3,1.1,3.1,1
			s1.1-0.3,1.3-0.4C148.2,126.3,149.4,126.2,149.4,126.2z"/>
		<path class="st1" d="M44.7,70.1c-3.3,1.7-5.3,4.6-6.2,8.2c-0.8,3.2-0.7,6.5-0.3,9.8c1.4,9.2,5.8,17.8,12,24.9
			c3.7,4.3,8.3,8.2,13.8,9.5c1.8,0.4,4.2,0.7,6-0.2c0,0,3.3-0.7,5.6-5.6c2.4-4.9,1.8-14.1,1.8-14.1s-6.1-15.9-12.2-22.7
			c-6-6.8-10.1-9.2-14.9-10.1C45.7,68.8,44.7,70.1,44.7,70.1z"/>
		<path class="st2" d="M192.8,75.2c0,0-5.6-1.7-13.1-3.5c-7.4-1.8-13.6-2.2-20.9-2.7s-11.9-0.1-17.1,0s-13.7,1.5-20.5,2.9
			c-6.8,1.4-21.1,5.5-26.1,7.4c-3.6,1.3-13.6,5.5-20.6,8.6c-2.8,1.3-6.1,2.8-6.7,3.2c-1.5,1-3.2,2.1-3.5,2.4
			c-1.2-2.1-3.1-3.2-4.5-2.6c-1.5,0.7-1.8,3.3-0.7,5.8c1.2,2.5,3.3,4,4.9,3.3c1.3-0.6,1.7-2.5,1.1-4.6l0,0c0,0,1.5-1,3.4-2
			c1.3-0.7,2.6-1.4,4.4-2.4c0.5-0.2,0.9-0.5,1.5-0.7c5.8-2.8,23.4-9.4,27.1-10.9c3.7-1.4,15.1-4.6,24.8-6.2
			c9.7-1.6,17.1-2.2,23.7-2.4c6.7-0.2,20.3,0.5,29.3,2.8c9,2.3,14.8,4.1,14.8,4.1L192.8,75.2z"/>
		<path class="st3" d="M124.5,159.3c-0.3-0.2-1.9-1.3-4.1-2.8c-4.7-3.2-9.6-5.5-14-9.3c-4.5-3.9-8.5-8.5-12.1-13.3
			c-3.9-5.2-7.3-10.6-10.8-16.1c-1.8-2.8-3.5-5.6-5.3-8.3c-1.7-2.5-3.7-4.8-5.2-7.4c-2.2-3.7-4.7-7.1-5-11.9c-0.3-4.9,0-8.1,1.8-9.9
			s3.2-2.6,3.9-2.6c0,0,0.5-1.4,1.9-2.2c1.3-0.7,3-1.3,4.4-1c0.5-0.6,2.5-1.7,4.1-1.7s2.9,0.5,3.4,0.7c0.6-0.4,2.4-1,3.3-1
			c0.9,0.1,4.9,2.5,4.9,5.6c0,0,0,3.1-0.1,3.5c-0.1,0.4,2.2-2.3,4.2-1.2c2,1.1,2.3,3.3,2.2,4.8c-0.1,1.5-1.8,4.2-2,5.6
			c-0.2,1.8-0.3,3.7-0.1,5.5c0.3,2.7,1.5,4.6,2.8,6.9c3.3,5.8,6.4,11.7,10.1,17.3c4,5.9,8.8,10.3,13.9,15.3c1.7,1.7,3.7,3.4,5.7,4.7
			c-2.2,2.1-2.2,4-3.2,6.5C128.2,149.4,124.5,159.3,124.5,159.3z"/>
		<path class="st0" d="M139.5,186.2c6.2,0.8,22.6,1.1,25.4-0.6c2.2-1.6,2.6-7.1,1.9-11.2c-0.7-4.1-1.8-14.6-3.4-20.1
			c-1.3-4.5-3.6-8.9-6.3-12.7c-1-1.4-2.1-2.8-3.6-3.8c-2.4-1.5-5.5-1.6-8.4-1.5c-3,0.1-6.2,0.1-9,1.1c-3.9,1.3-6,4.2-7.3,7.9
			c-3.4,9.9-6.9,19.8-10.5,29.8c-0.9,2.5-1.8,5.1-2.7,7.6C115.8,182.7,133,185.4,139.5,186.2z"/>
		<path class="st3" d="M148,136.3c0,0,1.5-9.4,1.4-10.9s-0.3-3-1.2-3s-2,3.1-2.1,3.1c-0.3-0.2-0.3-3.4-0.7-4.2
			c-0.4-0.8-2.1-1-2.8-1.2c-0.8-0.2-3-1.1-3.7-2.4c0,0,0.1-0.2-0.3-0.2s-1.4,2-1.6,2.5s-0.4,1.4-0.4,3c0,1.6,1.2,4.9,2.5,5.9
			s1.6,0.9,1.6,0.9l-1.4,6.8L148,136.3z"/>
		<path class="st4" d="M145.5,7.8l-27.1,27.1l11.5,11.5L140.3,36v23c0,0,4.2,0,8.3,0s8.3,0,8.3,0V36l10.4,10.4l11.5-11.5L151.6,7.8
			C149.9,6.1,147.2,6.1,145.5,7.8z"/>
		<path class="st1" d="M42.5,126.4c-1.9,1.2-3.8,2.8-6,3.1c-2.2,0.4-4.5-0.2-6.5-1.2c-2.4-1.3-4.4-3.3-6.1-5.4
			c-2.7-3.2-4.9-6.7-6.4-10.6c-1.5-4-2.6-9.1-1.1-13.2c1.3-3.4,4.2-5.6,7.6-6.5c-0.1,1.6,0.6,6.7,1.8,9.8c1.2,3.1,3.1,9.3,7.6,14.6
			C38,122.4,39.1,123.7,42.5,126.4z"/>
		<path class="st4" d="M42.5,126.4c-3.5-2.7-4.5-4-9.1-9.4c-4.5-5.4-6.4-11.5-7.6-14.6c-1.2-3.1-1.9-8.2-1.8-9.8
			c0,0-0.9-7.1,2.9-11.6c3.8-4.5,13.4-8.6,17.7-10.8c-3.3,1.7-5.3,4.6-6.2,8.2c-0.8,3.2-0.7,6.5-0.3,9.8c1.4,9.2,5.8,17.8,12,24.9
			c3.7,4.3,8.3,8.2,13.8,9.5c1.8,0.4,4.2,0.7,6-0.2c-1.4,0.7-2.8,1.5-4.2,2.2c-1.5,0.7-8.1,5-8.1,5s-5.5,1.4-8.9-0.1
			C48.8,129.4,44.4,127.9,42.5,126.4z"/>
		<path class="st3" d="M152.9,165.6c2.1,0.1,4.5-2.9,4.7-8.3c1,0.3,3.3-0.7,5.4-2.5c3.6-3.1,8.2-4.7,12.1-7.5
			c4.2-2.9,8-6.4,11.5-10.1c6-6.3,11.2-13.4,15.4-21c4.5-8,7.1-16.5,10.2-25.1c1.8-5,3.5-10,5.3-15c0,0,0.5-0.7-0.6-1.7
			c-1-1-1.9-0.6-1.9-0.6s0-1.4-0.9-2.1c-0.9-0.7-2.3-1.6-3.2-2c-1-0.4-2.1-0.3-2.7-0.3c-0.7-0.6-1.3-1.3-2.5-1.5
			c-1.2-0.2-2-0.4-4.3,0.5c-0.8,0.3-2.1-0.9-2.9-0.9c-0.8,0-2.1-0.1-3.9,1.5c-1.9,1.7-2.7,6.3-1.3,8.4c1.1,2,1.9,2.2,2.5,2.3
			c-0.1,0.4-0.5,1.2-0.5,1.2s-1.2,0-1.6-0.4c-0.2-0.6-0.7-2.9-2-3.4c-1.3-0.5-3.3-1.3-4-1.2c-0.7,0.1-2.1,1.5-2.1,2.7
			s-0.2,2.7,0.9,4.9c0.7,2.2,1,2.8,1,4.6c0,3.1-0.3,5.5-1.8,8.4c-3,6.1-6.5,12-10,17.8c-1.3,2.2-2.7,4.4-4.3,6.5
			c-5.4,6.8-13.1,11.6-19.3,17.5c-3.7,3.5-4.6,8.9-4.4,13.8C148.1,154.9,149,165.5,152.9,165.6z"/>
		<path class="st4" d="M208.8,119.3c-7.6-4.4-7.2-19.2,0.8-33.2s20.7-21.7,28.3-17.3l11.6,6.9l-29.2,49.8L208.8,119.3z"/>
		<ellipse transform="matrix(0.5 -0.866 0.866 0.5 30.242 255.9628)" class="st1" cx="236.8" cy="101.8" rx="29.1" ry="15.8"/>
		<path class="st4" d="M252.7,87.7c-5.2-3-13.8,2.2-19.2,11.6s-5.6,19.5-0.5,22.4l8,4.3l18.9-33.8L252.7,87.7z"/>
		<ellipse transform="matrix(0.5 -0.866 0.866 0.5 30.734 273.3496)" class="st1" cx="252.1" cy="110.1" rx="19.7" ry="10.8"/>
		<path class="st5" d="M140.3,223.3l1.2-3.7l2.7,3.1l36.4,0.1l-15.3-37.4l-49-2.5c0,0-2.6,5.7-4,9.4c-1.4,3.7-3.1,8.9-4.1,12.9
			s-3.6,16.5-3.5,18.3L140.3,223.3z"/>
		<path class="st6" d="M72.3,85.8c1.2,0,2.2,0.5,2.5,1.3c0.2,0.5,0.1,1.2,0,1.4c-0.2,0.8-0.5,1-0.6,1.6c-0.1,0.6,0.1,1.2,0.5,1.7
			c0.9,1.1,2.9,0.6,3.2,0.5c2.6-0.7,3.7-3.7,3.8-4.1c1.2-3.5-0.9-6.7-1.7-7.8c-1-1.5-1.9-2-2.3-2.2c-1.1-0.5-2.1-0.6-2.7-0.5"/>
		<path class="st6" d="M78.5,74.3c0.9,0.1,2.5,0.3,3.8,1.5c0.8,0.7,1.3,1.5,1.6,2.1c0.3,0.5,0.9,1.7,1.2,3.2c0.2,1.1,0.5,3-0.6,4.9
			c-0.8,1.4-2,2.1-2.7,2.5"/>
		<path class="st6" d="M83.8,72.5c0.7,0.1,2.1,0.3,3.4,1.3c0.8,0.6,1.2,1.2,1.6,1.6c0.3,0.4,1.1,1.6,1.5,3.4c0.2,0.8,0.4,2,0.1,3.6
			c-0.1,0.7-0.5,2.4-2,3.6c-0.4,0.3-1.4,1.2-2.9,1.2c-0.6,0-1-0.1-1.3-0.3"/>
		<path class="st6" d="M90.1,72.4c0.6,0,1.6,0.2,2.6,0.9c0.7,0.5,1.1,1.1,1.6,1.8c0.4,0.7,1.1,1.7,1.3,3.2c0.1,0.8,0.4,2.2-0.3,3.6
			c-0.2,0.3-0.7,1.5-2,2.2c-0.4,0.2-1.1,0.6-2.1,0.6c-0.6,0-1-0.2-1.3-0.3"/>
		<g>
			<path class="st2" d="M81.7,92.4c1.3-1.9,3-3.5,4.9-4.8c1-0.6,2-1.2,3.1-1.6c1.1-0.4,2.2-0.7,3.4-0.7l0,0.1
				c-1.1,0.4-2.2,0.7-3.2,1.2c-1,0.4-2.1,0.9-3,1.5C85,89.2,83.2,90.7,81.7,92.4L81.7,92.4z"/>
		</g>
		<path class="st7" d="M100.1,82.6c-0.2,0.1-1.1,0.6-1.4,1.7c-0.3,1,0.1,2.1,1,2.8"/>
		<path class="st7" d="M187.9,82.8c0.1,0,1.2-0.9,1.1-2.2c-0.1-1-0.7-1.9-1.7-2.3"/>
		<path class="st6" d="M205.9,88c-0.7-1.1-1.9-2.5-3.7-3.8c-2.5-1.9-5.1-2.6-6.5-2.9"/>
		<path class="st6" d="M209,86.8c-0.6-0.5-1.7-1.5-2.3-3.1c-1.5-3.8,0.8-7.2,0.9-7.3c1.9-2.7,4.8-3.2,5.3-3.3"/>
		<path class="st6" d="M209.8,69.3c-0.7,0.1-2.5,0.3-4.1,1.7c-1.3,1.1-1.8,2.5-2.1,3.5c-0.3,0.9-1,3-0.4,5.4
			c0.2,0.7,0.8,2.8,2.7,3.8c0.3,0.2,0.7,0.3,0.9,0.4"/>
		<path class="st6" d="M204.4,67.6c-0.7,0-2.1,0.2-3.3,1.2c-0.6,0.5-1,0.9-1.3,1.4c-0.5,0.7-1.5,2.1-1.9,4.1
			c-0.2,1.1-0.6,3.2,0.6,5.2c0.3,0.5,1,1.7,2.5,2.4c1.4,0.6,2.8,0.5,3.2,0.4"/>
		<path class="st6" d="M198.4,67.8c-0.6,0.1-1.9,0.2-3,0.9c-0.3,0.2-2,1.3-2.7,3.4c-0.6,2-0.3,4.7,1.6,6.4c1.5,1.3,3.6,1.4,4.2,1.4"
			/>
		<path class="st8" d="M145.7,191.9c0.7,0.8,2,1.9,3.9,2.6c0.5,0.2,1.5,0.6,2.8,0.7c1.1,0.1,1.6,0.1,2.1,0.2c0.2,0,0.3,0.1,0.4,0.3
			c0.7,1.7,2.8,5.9,3.1,6.4c1.7,3.5,3.4,7.9,8.3,17.4"/>
		<line class="st8" x1="127.8" y1="222.7" x2="132.5" y2="201.5"/>
		<path class="st9" d="M129.4,191.9c0,0,3.1,9.6,6.2,15.6s9.1,15.5,9.1,15.5"/>
		<path class="st10" d="M139.9,134.2c0,0,3.8-2.6,4.5-3.6c0.7-0.9,1.4-2.5,1.2-2.3c-0.7,0.7-1.7,1.6-2.8,1.6s-2.1,0-2.1,0
			L139.9,134.2z"/>
		<path class="st6" d="M140.5,126.2c-0.3,0.5-2.6,0.7-3.1-0.4"/>
		<circle class="st2" cx="140.9" cy="121.7" r="0.7"/>
		<circle class="st2" cx="136.9" cy="120.9" r="0.7"/>
		<path class="st7" d="M138,122.1c-0.5,0.3-0.8,0.7-0.8,1.1c0,0.2,0.1,0.3,0.1,0.4c0.3,0.5,0.8,0.5,1,0.5"/>
		<path class="st7" d="M140.3,120.3c0.4,0.2,1.3-0.2,1.3-0.2l0.7-0.4"/>
		<path class="st7" d="M137.8,119.6c0,0-0.5,0.2-1-0.1c-0.5-0.3-0.6-0.8-0.6-0.8"/>
		<polygon class="st2" points="68.5,93.6 74,90.5 75,87.7 67.9,91.1 		"/>
		<path class="st11" d="M166.9,174.4c-0.2-1.4-0.5-3.5-0.8-5.8c-4.4,0.9-30.1,0.2-44.6-1.8c-1,2.8-2,5.6-3,8.3
			c0,0,46.7,4.5,48.6,4.7C167.3,178,167.2,176.1,166.9,174.4z"/>
	</g>
	<line class="st9" x1="33.1" y1="223.7" x2="255.7" y2="222.3"/>
</g>
</svg>
