<?xml version="1.0" encoding="utf-8"?>
<!-- Generator: Adobe Illustrator 25.0.0, SVG Export Plug-In . SVG Version: 6.00 Build 0)  -->
<svg version="1.1" id="Warstwa_1" xmlns="http://www.w3.org/2000/svg" xmlns:xlink="http://www.w3.org/1999/xlink" x="0px" y="0px"
	 viewBox="0 0 556.1 114.1" style="enable-background:new 0 0 556.1 114.1;" xml:space="preserve">
<style type="text/css">
	.st0{fill:#a593f3 ;}
	.st1{fill:#a593f3;}
</style>
<rect x="-3282" y="-442.9" class="st0" width="1000" height="1000"/>
<g>
	<g>
		<path class="st1" d="M-2958.6,36.6c0-6.8,5.8-11.4,16.2-11.4c11.6,0,23.8,3.9,33,12.4L-2896,20c-11.2-10.4-26.2-15.8-44.2-15.8
			c-26.7,0-43,15.7-43,34.5c0,42.7,65.3,28.9,65.3,49c0,6.5-6.5,12.6-19.7,12.6c-15.6,0-28.1-7-36.1-15.3l-13.1,18.4
			c10.5,10.7,26.2,18,48,18c30.6,0,45.4-15.6,45.4-36.4C-2893.5,42.6-2958.6,54.7-2958.6,36.6z"/>
		<rect x="-2877.4" y="5.9" class="st1" width="24.2" height="113.5"/>
		<polygon class="st1" points="-2676,51.4 -2704.3,5.9 -2731.8,5.9 -2688.1,72.9 -2688.1,119.3 -2664,119.3 -2664,72.9 -2620.6,5.9 
			-2648.1,5.9 		"/>
		<path class="st1" d="M-2443.3,119.3h27.6l-66.7-113.5h-15.1h-34l-27.6,68.6l-27.6-68.6h-33.9v113.5h24.2V39.9l32,79.4h10.5
			l32-79.4v79.4h24.3v-19.2h42.6L-2443.3,119.3z M-2497.6,78.8V30l29.7,48.8H-2497.6z"/>
		<path class="st1" d="M-2786.7,77h28.4v13.1c-4.4,4.1-13.4,8.4-22.9,8.4c-19.5,0-33.7-15.3-33.7-36c0-20.7,14.2-36,33.7-36
			c11.5,0,20.7,6.6,25.5,14.3l19-10.5c-8.1-13-22.1-24.5-44.5-24.5c-31.5,0-57.3,22-57.3,56.6c0,34.5,25.8,56.8,57.3,56.8
			c19.5,0,34.9-8.2,45.8-20.7v-42h-51.3V77z"/>
	</g>
	<path class="st1" d="M-3021.5,87c-9.4-35.2-41.2-70.4-79.1-80.4c-37.7-10-54.4,12.4-45,47.6c5.3,19.7,16.9,37.6,31.6,52.5
		c3,3,6.8,5.2,10.9,6.3v0c17.8,4.7,34-11.5,29.2-29.3l-3.2-11.9c-0.9-3.5-3.6-6.2-7.1-7.1h0c-7.4-2-14.2,4.8-12.2,12.2l0.8,2.8
		c1.5,5.5-3.5,10.5-9,9l0,0c-1.4-0.4-2.7-1.2-3.7-2.3c-5.5-6.3-11.9-16.6-14.4-26.3c-5.8-21.8,6.6-33.3,29.2-27.3
		c22.6,6,43.6,26.3,49.4,48.1c2.1,8,1.2,14.3-1.5,18.6c-3,4.8-2.9,10.8,0.3,15.4l0.3,0.4c7.3,10.3,23.4,6.6,25.4-5.8
		C-3018.7,103.6-3019.1,96.1-3021.5,87z"/>
</g>
<rect x="-2262" y="-442.9" class="st0" width="1000" height="1000"/>
<g>
	<g>
		<path class="st1" d="M8.1,95.4L20.5,78c7.6,7.9,19.3,14.5,34.1,14.5c12.5,0,18.7-5.8,18.7-11.9c0-19-61.7-5.9-61.7-46.3
			c0-17.8,15.4-32.6,40.7-32.6c17,0,31.2,5.1,41.8,15L81.2,33.3C72.6,25.3,61,21.6,50,21.6c-9.8,0-15.3,4.3-15.3,10.8
			c0,17,61.6,5.6,61.6,45.7c0,19.6-14,34.4-42.9,34.4C32.8,112.4,18,105.5,8.1,95.4z"/>
		<path class="st1" d="M111.6,110.5V3.3h22.8v107.3H111.6z"/>
		<path class="st1" d="M290.5,110.5V66.6L249.2,3.3h26l26.7,43.1l26.4-43.1h26l-41,63.4v43.9H290.5z"/>
		<path class="st1" d="M447.6,110.5V35.4l-30.2,75.1h-10l-30.2-75.1v75.1h-22.8V3.3h32l26,64.8l26.1-64.8h32.2v107.3H447.6z"/>
		<path class="st1" d="M470.6,3.3h14.3L548,110.5h-26.1l-51.3-84.4"/>
	</g>
	<path class="st1" d="M268,79.9c-8.9-33.2-39-66.5-74.8-76c-35.7-9.4-51.4,11.7-42.5,45c5,18.6,16,35.5,29.8,49.6
		c2.8,2.9,6.4,4.9,10.3,6l0,0c16.8,4.4,32.1-10.9,27.6-27.7l-3-11.2c-0.9-3.3-3.4-5.8-6.7-6.7h0c-7-1.9-13.4,4.6-11.5,11.6l0.7,2.7
		c1.4,5.2-3.3,9.9-8.5,8.5h0c-1.3-0.4-2.6-1.1-3.5-2.2c-5.2-6-11.2-15.7-13.7-24.9c-5.5-20.6,6.2-31.4,27.6-25.8
		c21.4,5.7,41.2,24.9,46.7,45.5c2,7.6,1.2,13.5-1.4,17.6c-2.8,4.5-2.7,10.2,0.3,14.6l0.3,0.4c6.9,9.7,22.1,6.3,24-5.5
		C270.8,95.6,270.4,88.6,268,79.9z"/>
	<rect x="468.2" y="72.2" class="st1" width="49.4" height="20.1"/>
</g>
<rect x="-1242" y="-442.9" class="st0" width="1000" height="1000"/>
<path class="st1" d="M-390.9,193.9c-53.2-198.7-232.9-397.7-447-454.4c-213.1-56.4-307.4,70-254.2,268.7
	c29.8,111.4,95.3,212.2,178.3,296.7c16.9,17.2,38.2,29.4,61.5,35.6l0,0c100.3,26.6,191.9-65.3,165-165.5l-18-67.2
	c-5.2-19.5-20.5-34.8-40.1-40h0c-41.9-11.1-80.2,27.3-69,69.2l4.3,15.9c8.3,30.8-19.9,59.1-50.8,50.9h0c-8-2.1-15.3-6.6-20.7-12.9
	c-31-35.8-67-93.8-81.6-148.6C-996.2-81-925.8-145.7-798-111.8C-670.1-77.9-551.8,36.7-518.7,160c12.1,45.2,6.9,80.7-8.4,105.3
	c-16.7,26.9-16.4,61.1,1.9,87l1.5,2.1c41,58,132,37.5,143.6-32.6C-374.5,287.7-377,245.6-390.9,193.9z"/>
</svg>
