<?xml version="1.0" encoding="utf-8"?>
<!-- Generator: Adobe Illustrator 25.0.0, SVG Export Plug-In . SVG Version: 6.00 Build 0)  -->
<svg version="1.1" id="Warstwa_1" xmlns="http://www.w3.org/2000/svg" xmlns:xlink="http://www.w3.org/1999/xlink" x="0px" y="0px"
	 viewBox="0 0 256 256" style="enable-background:new 0 0 256 256;" xml:space="preserve">
<style type="text/css">
	.st0{fill:#2F52FF;}
	.st1{fill:#FFFFFF;}
</style>
<rect x="-2412" y="-372" class="st0" width="1000" height="1000"/>
<g>
	<g>
		<path class="st1" d="M-2088.7,107.6c0-6.8,5.8-11.4,16.2-11.4c11.6,0,23.8,3.9,33,12.4l13.4-17.7c-11.2-10.4-26.2-15.8-44.2-15.8
			c-26.7,0-43,15.7-43,34.5c0,42.7,65.3,28.9,65.3,49c0,6.5-6.5,12.6-19.7,12.6c-15.6,0-28.1-7-36.1-15.3l-13.1,18.4
			c10.5,10.7,26.2,18,48,18c30.6,0,45.4-15.6,45.4-36.4C-2023.5,113.5-2088.7,125.6-2088.7,107.6z"/>
		<rect x="-2007.4" y="76.8" class="st1" width="24.2" height="113.5"/>
		<polygon class="st1" points="-1806.1,122.4 -1834.3,76.8 -1861.9,76.8 -1818.1,143.8 -1818.1,190.3 -1794,190.3 -1794,143.8 
			-1750.6,76.8 -1778.2,76.8 		"/>
		<path class="st1" d="M-1573.3,190.3h27.6l-66.7-113.5h-15.1h-34l-27.6,68.6l-27.6-68.6h-33.9v113.5h24.2v-79.4l32,79.4h10.5
			l32-79.4v79.4h24.3V171h42.6L-1573.3,190.3z M-1627.6,149.8V101l29.7,48.8H-1627.6z"/>
		<path class="st1" d="M-1916.8,147.9h28.4V161c-4.4,4.1-13.4,8.4-22.9,8.4c-19.5,0-33.7-15.3-33.7-36c0-20.7,14.2-36,33.7-36
			c11.5,0,20.7,6.6,25.5,14.3l19-10.5c-8.1-13-22.1-24.5-44.5-24.5c-31.5,0-57.3,22-57.3,56.6c0,34.5,25.8,56.8,57.3,56.8
			c19.5,0,34.9-8.2,45.8-20.7v-42h-51.3V147.9z"/>
	</g>
	<path class="st1" d="M-2151.6,157.9c-9.4-35.2-41.2-70.4-79.1-80.4c-37.7-10-54.4,12.4-45,47.6c5.3,19.7,16.9,37.6,31.6,52.5
		c3,3,6.8,5.2,10.9,6.3v0c17.8,4.7,34-11.5,29.2-29.3l-3.2-11.9c-0.9-3.5-3.6-6.2-7.1-7.1l0,0c-7.4-2-14.2,4.8-12.2,12.2l0.8,2.8
		c1.5,5.5-3.5,10.5-9,9l0,0c-1.4-0.4-2.7-1.2-3.7-2.3c-5.5-6.3-11.9-16.6-14.4-26.3c-5.8-21.8,6.6-33.3,29.2-27.3
		c22.6,6,43.6,26.3,49.4,48.1c2.1,8,1.2,14.3-1.5,18.6c-3,4.8-2.9,10.8,0.3,15.4l0.3,0.4c7.3,10.3,23.4,6.6,25.4-5.8
		C-2148.7,174.5-2149.1,167.1-2151.6,157.9z"/>
</g>
<rect x="-1392" y="-372" class="st0" width="1000" height="1000"/>
<g>
	<g>
		<path class="st1" d="M-1170,167.5l12.8-17.9c7.8,8.1,19.9,14.9,35.1,14.9c12.9,0,19.2-6,19.2-12.3c0-19.5-63.6-6.1-63.6-47.7
			c0-18.4,15.9-33.6,41.9-33.6c17.6,0,32.1,5.3,43.1,15.4l-13.1,17.2c-8.9-8.3-20.9-12.1-32.1-12.1c-10.1,0-15.7,4.5-15.7,11.1
			c0,17.6,63.4,5.8,63.4,47c0,20.2-14.4,35.4-44.2,35.4C-1144.5,185.1-1159.8,177.9-1170,167.5z"/>
		<path class="st1" d="M-1063.4,183.1V72.6h23.5v110.5H-1063.4z"/>
		<path class="st1" d="M-879.2,183.1v-45.2l-42.6-65.3h26.8l27.5,44.4l27.2-44.4h26.8l-42.2,65.3v45.2H-879.2z"/>
		<path class="st1" d="M-717.4,183.1v-77.3l-31.1,77.3h-10.3l-31.1-77.3v77.3h-23.5V72.6h33l26.8,66.7l26.8-66.7h33.1v110.5H-717.4z
			"/>
		<path class="st1" d="M-693.7,72.6h14.7l65,110.5h-26.8l-52.9-86.9"/>
	</g>
	<path class="st1" d="M-902.3,151.6c-9.2-34.2-40.1-68.5-77-78.3c-36.7-9.7-53,12.1-43.8,46.3c5.1,19.2,16.4,36.6,30.7,51.1
		c2.9,3,6.6,5.1,10.6,6.1l0,0c17.3,4.6,33.1-11.2,28.4-28.5l-3.1-11.6c-0.9-3.4-3.5-6-6.9-6.9h0c-7.2-1.9-13.8,4.7-11.9,11.9
		l0.7,2.7c1.4,5.3-3.4,10.2-8.7,8.8l0,0c-1.4-0.4-2.6-1.1-3.6-2.2c-5.3-6.2-11.5-16.2-14.1-25.6c-5.7-21.2,6.4-32.4,28.5-26.5
		c22,5.8,42.4,25.6,48.1,46.8c2.1,7.8,1.2,13.9-1.4,18.1c-2.9,4.6-2.8,10.5,0.3,15l0.3,0.4c7.1,10,22.7,6.5,24.7-5.6
		C-899.5,167.7-899.9,160.5-902.3,151.6z"/>
	<rect x="-696.2" y="143.7" class="st1" width="50.8" height="20.7"/>
</g>
<g>
	<path class="st1" d="M251,175.9C232.4,106.3,169.4,36.6,94.4,16.7C19.8-3-13.3,41.3,5.4,110.9c10.5,39,33.4,74.3,62.5,104
		c5.9,6,13.4,10.3,21.5,12.5l0,0c35.2,9.3,67.2-22.9,57.8-58l-6.3-23.5c-1.8-6.8-7.2-12.2-14-14h0c-14.7-3.9-28.1,9.6-24.2,24.2
		l1.5,5.6c2.9,10.8-7,20.7-17.8,17.8h0c-2.8-0.7-5.3-2.3-7.3-4.5c-10.9-12.5-23.5-32.9-28.6-52.1c-11.6-43.2,13.1-65.8,57.9-54
		c44.8,11.9,86.3,52,97.8,95.2c4.2,15.8,2.4,28.3-2.9,36.9c-5.9,9.4-5.8,21.4,0.7,30.5l0.5,0.7c14.4,20.3,46.2,13.1,50.3-11.4
		C256.7,208.8,255.9,194,251,175.9z"/>
</g>
</svg>
