<?xml version="1.0" encoding="utf-8"?>
<!-- Generator: Adobe Illustrator 25.0.0, SVG Export Plug-In . SVG Version: 6.00 Build 0)  -->
<svg version="1.1" id="Warstwa_1" xmlns="http://www.w3.org/2000/svg" xmlns:xlink="http://www.w3.org/1999/xlink" x="0px" y="0px"
	 viewBox="0 0 329 465" style="enable-background:new 0 0 329 465;" xml:space="preserve">
<style type="text/css">
	.st0{fill:#D9D9D9;}
	.st1{fill:#F2F2F2;}
	.st2{fill:#E6E6E6;}
	.st3{fill:#FFFFFF;}
	.st4{fill:#CCCCCC;}
</style>
<g>
	<polygon class="st0" points="329,178.8 0,178.8 39.4,122.3 329,122.3 	"/>
	<path class="st1" d="M0,178.8V465h329V178.8H0z M206.4,375.1h-86.6v-21.9c3.9-3.1,5.7-4.5,5.3-4.3c11.3-9.3,20.2-17,26.7-23
		c6.5-6,12-12.3,16.5-18.8c4.5-6.6,6.7-12.9,6.7-19.2c0-4.7-1.1-8.4-3.3-11c-2.2-2.6-5.5-4-9.8-4c-4.4,0-7.8,1.6-10.3,4.9
		c-2.5,3.3-3.7,7.9-3.7,13.9h-28.5c0.2-9.8,2.3-18,6.3-24.5c4-6.6,9.2-11.4,15.7-14.5c6.5-3.1,13.7-4.7,21.7-4.7
		c13.7,0,24,3.5,31,10.5c7,7,10.4,16.2,10.4,27.4c0,12.3-4.2,23.7-12.6,34.3c-8.4,10.5-19.1,20.8-32.1,30.8h46.6V375.1z"/>
</g>
</svg>
