<svg id="Warstwa_1" data-name="Warstwa 1" xmlns="http://www.w3.org/2000/svg" viewBox="0 0 987.04 443.42"><defs><style>.cls-1{fill:#e6e6e6;}.cls-2{fill:#d9d9d9;}.cls-3{fill:#ccc;}.cls-4{fill:#f2f2f2;}.cls-5{fill:#fff;}</style></defs><polygon class="cls-1" points="658.03 58.78 329.01 58.78 368.46 0 618.58 0 658.03 58.78"/><polygon class="cls-2" points="329.01 157.21 0 157.21 39.45 100.75 329.01 100.75 329.01 157.21"/><path class="cls-1" d="M664.51,222.49V450.77h329V222.49ZM865.37,378.94A31.4,31.4,0,0,1,851.93,391q-8.83,4.38-21,4.38-19.43,0-31-9.56T787.71,357h26.88q.17,7.13,4,11.25T830,372.38q6.32,0,9.8-3.64a13.37,13.37,0,0,0,3.48-9.64q0-7.77-4.94-11.26t-15.79-3.48h-5.18V321.85h5.18q8.26,0,13.36-2.84T841,308.89q0-5.83-3.24-9.07c-2.16-2.16-5.14-3.24-8.91-3.24q-6.17,0-9.16,3.72a16.85,16.85,0,0,0-3.48,9.24H789.16q.65-17.34,11.34-26.73t29-9.39q12.15,0,20.82,4.21a29.8,29.8,0,0,1,17.57,27.86q0,10.68-5.34,17.41a27.08,27.08,0,0,1-12.47,9.15v.65a29.2,29.2,0,0,1,14.57,10.2Q870,350,870,361.21A33.75,33.75,0,0,1,865.37,378.94Z" transform="translate(-6.48 -7.35)"/><polygon class="cls-3" points="987.04 215.14 658.02 215.14 658.02 158.69 947.59 158.69 987.04 215.14"/><path class="cls-4" d="M6.48,164.56V450.77h329V164.56ZM212.91,360.93H126.26V339c3.91-3.1,5.7-4.54,5.35-4.31q16.92-14,26.67-23a110.42,110.42,0,0,0,16.49-18.81q6.72-9.84,6.73-19.16,0-7.08-3.28-11.05t-9.84-4a12.14,12.14,0,0,0-10.27,4.92q-3.72,4.92-3.71,13.9H125.92q.35-14.67,6.3-24.51a36.54,36.54,0,0,1,15.7-14.5,49.61,49.61,0,0,1,21.67-4.66q20.53,0,31,10.53T211,271.86q0,18.47-12.6,34.26t-32.1,30.81h46.6Z" transform="translate(-6.48 -7.35)"/><path class="cls-5" d="M335.49,66.13V450.77h329V66.13Zm180.25,261H485V228.59H467.92V201.14h47.82Z" transform="translate(-6.48 -7.35)"/></svg>