<?xml version="1.0" encoding="utf-8"?>
<!-- Generator: Adobe Illustrator 25.0.0, SVG Export Plug-In . SVG Version: 6.00 Build 0)  -->
<svg version="1.1" id="Warstwa_1" xmlns="http://www.w3.org/2000/svg" xmlns:xlink="http://www.w3.org/1999/xlink" x="0px" y="0px"
	 viewBox="0 0 329 465" style="enable-background:new 0 0 329 465;" xml:space="preserve">
<style type="text/css">
	.st0{fill:#D9D9D9;}
	.st1{fill:#F2F2F2;}
	.st2{fill:#E6E6E6;}
	.st3{fill:#FFFFFF;}
	.st4{fill:#CCCCCC;}
</style>
<g>
	<path class="st2" d="M0,236.7V465h329V236.7H0z M200.9,393.2c-3.1,5.1-7.6,9.2-13.4,12.1c-5.9,2.9-12.9,4.4-21,4.4
		c-13,0-23.3-3.2-31-9.6c-7.7-6.4-11.8-16-12.2-28.8h26.9c0.1,4.8,1.5,8.5,4.1,11.3c2.6,2.8,6.4,4.1,11.3,4.1c4.2,0,7.5-1.2,9.8-3.6
		c2.3-2.4,3.5-5.6,3.5-9.6c0-5.2-1.6-8.9-4.9-11.3c-3.3-2.3-8.6-3.5-15.8-3.5h-5.2v-22.5h5.2c5.5,0,10-0.9,13.4-2.8
		c3.4-1.9,5.1-5.3,5.1-10.1c0-3.9-1.1-6.9-3.2-9.1c-2.2-2.2-5.1-3.2-8.9-3.2c-4.1,0-7.2,1.2-9.2,3.7c-2,2.5-3.2,5.6-3.5,9.2h-27
		c0.4-11.6,4.2-20.5,11.3-26.7c7.1-6.3,16.8-9.4,29-9.4c8.1,0,15,1.4,20.8,4.2c5.8,2.8,10.1,6.6,13.1,11.5c3,4.9,4.5,10.3,4.5,16.4
		c0,7.1-1.8,12.9-5.3,17.4c-3.6,4.5-7.7,7.5-12.5,9.2v0.6c6.2,2.1,11,5.5,14.6,10.2c3.6,4.8,5.3,10.9,5.3,18.3
		C205.5,382.1,203.9,388,200.9,393.2z"/>
	<polygon class="st4" points="329,236.7 0,236.7 0,180.3 289.6,180.3 	"/>
</g>
</svg>
